# xmcd
#
# Track frame offsets: 
#        150
#        15786
#        37315
#        51467
#        64895
#        78859
#        92405
#        106773
#        119929
#        133524
#        149439
#        162198
#        179464
#        191742
#
# Disc length: 2730 seconds
#
# Revision: 2
# Processed by: cddbd v1.5.2PL0 Copyright (c) Steve Scherf et al.
# Submitted via: ExactAudioCopy v1.0b4
#
DISCID=c30aa80e
DTITLE=Peter Green - Peter Plays The Blues
DYEAR=2002
DGENRE=Blues Rock
TTITLE0=Phonograph Blues
TTITLE1=Love In Vain Blues
TTITLE2=Come On In My Kitchen
TTITLE3=Ramblin' On My Mind
TTITLE4=Walkin' Blues
TTITLE5=Little Queen Of Spades
TTITLE6=Malted Milk
TTITLE7=Stones In My Passway
TTITLE8=Me and The Devil Blues
TTITLE9=I'm A Steady Rollin' Man
TTITLE10=Dead Shrimp Blues
TTITLE11=They're Red Hot
TTITLE12=Preachin' Blues
TTITLE13=Cross Road Blues
EXTD=YEAR: 2002
EXTT0=
EXTT1=
EXTT2=
EXTT3=
EXTT4=
EXTT5=
EXTT6=
EXTT7=
EXTT8=
EXTT9=
EXTT10=
EXTT11=
EXTT12=
EXTT13=
PLAYORDER=
